<svg width="60" height="60" viewBox="0 0 60 60" fill="none" xmlns="http://www.w3.org/2000/svg">
<circle cx="30" cy="30" r="30" fill="#F38181"/>
<path d="M36.8235 23.055C36.1969 23.055 35.6891 23.5628 35.6891 24.1894V45.6305C35.6891 46.2567 36.1969 46.765 36.8235 46.765C37.4501 46.765 37.958 46.2567 37.958 45.6305V24.1894C37.958 23.5628 37.4501 23.055 36.8235 23.055Z" fill="black"/>
<path d="M23.4371 23.055C22.8105 23.055 22.3026 23.5628 22.3026 24.1894V45.6305C22.3026 46.2567 22.8105 46.765 23.4371 46.765C24.0637 46.765 24.5715 46.2567 24.5715 45.6305V24.1894C24.5715 23.5628 24.0637 23.055 23.4371 23.055Z" fill="black"/>
<path d="M13.6808 19.926V47.8764C13.6808 49.5284 14.2865 51.0799 15.3448 52.1931C16.3981 53.3093 17.864 53.943 19.3982 53.9457H40.8623C42.3969 53.943 43.8629 53.3093 44.9158 52.1931C45.974 51.0799 46.5798 49.5284 46.5798 47.8764V19.926C48.6834 19.3676 50.0465 17.3353 49.7651 15.1768C49.4832 13.0187 47.6446 11.4043 45.4679 11.4039H39.6596V9.9858C39.6663 8.7933 39.1948 7.64821 38.3506 6.8058C37.5064 5.96382 36.3595 5.49498 35.167 5.50473H25.0935C23.901 5.49498 22.7541 5.96382 21.9099 6.8058C21.0658 7.64821 20.5942 8.7933 20.6009 9.9858V11.4039H14.7926C12.6159 11.4043 10.7773 13.0187 10.4954 15.1768C10.214 17.3353 11.5772 19.3676 13.6808 19.926ZM40.8623 51.6768H19.3982C17.4586 51.6768 15.9497 50.0106 15.9497 47.8764V20.0257H44.3109V47.8764C44.3109 50.0106 42.802 51.6768 40.8623 51.6768ZM22.8698 9.9858C22.8623 9.39509 23.0945 8.82653 23.5137 8.40954C23.9325 7.99254 24.5023 7.76343 25.0935 7.77362H35.167C35.7582 7.76343 36.3281 7.99254 36.7468 8.40954C37.1661 8.82609 37.3983 9.39509 37.3907 9.9858V11.4039H22.8698V9.9858ZM14.7926 13.6728H45.4679C46.5957 13.6728 47.5099 14.587 47.5099 15.7148C47.5099 16.8426 46.5957 17.7568 45.4679 17.7568H14.7926C13.6648 17.7568 12.7506 16.8426 12.7506 15.7148C12.7506 14.587 13.6648 13.6728 14.7926 13.6728Z" fill="black"/>
<path d="M30.1303 23.055C29.5037 23.055 28.9958 23.5628 28.9958 24.1894V45.6305C28.9958 46.2567 29.5037 46.765 30.1303 46.765C30.7569 46.765 31.2647 46.2567 31.2647 45.6305V24.1894C31.2647 23.5628 30.7569 23.055 30.1303 23.055Z" fill="black"/>
</svg>
