<svg width="60" height="60" viewBox="0 0 60 60" fill="none" xmlns="http://www.w3.org/2000/svg">
<path d="M60 30C60 46.5685 46.5685 60 30 60C13.4315 60 0 46.5685 0 30C0 13.4315 13.4315 0 30 0C46.5685 0 60 13.4315 60 30Z" fill="#9FF381"/>
<path d="M46.1919 34.4138C45.6921 34.4138 45.2871 34.8188 45.2871 35.3186V43.3523C45.2853 44.8509 44.0712 46.0653 42.5726 46.0667H17.1846C15.686 46.0653 14.4719 44.8509 14.4701 43.3523V19.7739C14.4719 18.2756 15.686 17.0612 17.1846 17.0594H25.2183C25.7181 17.0594 26.1231 16.6544 26.1231 16.1546C26.1231 15.6552 25.7181 15.2498 25.2183 15.2498H17.1846C14.6872 15.2526 12.6633 17.2765 12.6605 19.7739V43.3527C12.6633 45.8501 14.6872 47.8739 17.1846 47.8767H42.5726C45.0701 47.8739 47.0939 45.8501 47.0967 43.3527V35.3186C47.0967 34.8188 46.6916 34.4138 46.1919 34.4138Z" fill="black"/>
<path d="M46.7384 12.9217C45.1482 11.3316 42.5702 11.3316 40.9801 12.9217L24.8377 29.0641C24.7271 29.1747 24.6472 29.3118 24.6055 29.4624L22.4827 37.1261C22.3954 37.4403 22.4841 37.7768 22.7146 38.0076C22.9454 38.238 23.2819 38.3267 23.5961 38.2398L31.2597 36.1166C31.4103 36.0749 31.5474 35.9951 31.6581 35.8844L47.8001 19.7417C49.3878 18.1505 49.3878 15.5746 47.8001 13.9834L46.7384 12.9217ZM26.8092 29.6522L40.0205 16.4406L44.2812 20.7013L31.0696 33.9129L26.8092 29.6522ZM25.9581 31.36L29.3621 34.7644L24.6536 36.0689L25.9581 31.36ZM46.5206 18.4622L45.561 19.4218L41.3 15.1607L42.2599 14.2012C43.1432 13.3179 44.5753 13.3179 45.4585 14.2012L46.5206 15.2629C47.4025 16.1472 47.4025 17.5783 46.5206 18.4622Z" fill="black"/>
</svg>
