<svg width="60" height="60" viewBox="0 0 60 60" fill="none" xmlns="http://www.w3.org/2000/svg">
<circle cx="30" cy="30" r="30" fill="#F1F381"/>
<path d="M20.1376 21.0176H39.4956C39.982 21.0176 40.3755 20.624 40.3755 20.1377C40.3755 19.6513 39.982 19.2577 39.4956 19.2577H20.1376C19.6513 19.2577 19.2577 19.6513 19.2577 20.1377C19.2578 20.6241 19.6513 21.0176 20.1376 21.0176Z" fill="black"/>
<path d="M30.6965 29.8167H20.1376C19.6513 29.8167 19.2577 30.2102 19.2577 30.6966C19.2577 31.183 19.6513 31.5766 20.1376 31.5766H30.6965C31.1829 31.5766 31.5764 31.183 31.5764 30.6966C31.5764 30.2102 31.1829 29.8167 30.6965 29.8167Z" fill="black"/>
<path d="M49.3259 13.9784C49.2749 13.9784 49.2255 13.9912 49.1747 13.9935V13.9784C49.1747 12.0373 47.5953 10.4587 45.655 10.4587H13.9784C12.0381 10.4587 10.4587 12.0373 10.4587 13.9784V48.2947C10.4587 48.6505 10.6735 48.9718 11.0018 49.1076C11.1101 49.1531 11.2252 49.1747 11.3386 49.1747C11.5672 49.1747 11.7923 49.0853 11.9607 48.9169L20.5021 40.3756H45.655C47.5953 40.3756 49.1747 38.7971 49.1747 36.8559V22.2614L51.7078 19.7287C51.7078 19.7287 51.7078 19.7287 51.7078 19.7278C52.3351 19.1006 52.6943 18.2327 52.6943 17.3467C52.6943 15.489 51.1837 13.9784 49.3259 13.9784ZM47.4148 36.8559C47.4148 37.826 46.626 38.6157 45.655 38.6157H20.1377C19.904 38.6157 19.6805 38.7085 19.5155 38.8735L12.2185 46.1706V13.9784C12.2185 13.0083 13.0074 12.2186 13.9783 12.2186H45.655C46.626 12.2186 47.4148 13.0083 47.4148 13.9784V14.5794C47.2478 14.6942 47.088 14.8205 46.944 14.9648L37.37 24.5372H20.1377C19.6513 24.5372 19.2578 24.9308 19.2578 25.4172C19.2578 25.9036 19.6513 26.2971 20.1377 26.2971H35.9583L35.1133 30.524C35.0549 30.8127 35.146 31.1109 35.3539 31.3188C35.5207 31.4855 35.7458 31.5766 35.9761 31.5766C36.0328 31.5766 36.0912 31.5705 36.1479 31.5594L40.5458 30.6795C40.7176 30.6451 40.874 30.5617 40.996 30.4388L47.4148 24.021V36.8559ZM39.9408 29.0064L37.0983 29.5752L37.6672 26.7293L45.6546 18.7418L47.9303 21.0175L39.9408 29.0064ZM50.4635 18.4844L49.1746 19.7734L46.8988 17.4975L48.1881 16.2082C48.4871 15.91 48.9013 15.7382 49.3258 15.7382C50.2126 15.7382 50.9344 16.4599 50.9344 17.3467C50.9345 17.7695 50.7626 18.1846 50.4635 18.4844Z" fill="black"/>
</svg>
